<svg height="3310" width="720" xmlns="http://www.w3.org/2000/svg">
<rect height="3310" fill="#555" width="720"></rect>
<text fill="#7f7" font-family="Courier New" font-size="12" xml:space="preserve">
<tspan x="10" y="26">16 megabytes installed</tspan>
<tspan x="10" y="42"></tspan>
<tspan x="10" y="58">node_modules</tspan>
<tspan x="10" y="74">├── UNMET PEER DEPENDENCY webpack@^2.2.0</tspan>
<tspan x="10" y="90">└─┬ webpack-dev-server@2.4.2 </tspan>
<tspan x="10" y="106">  ├── ansi-html@0.0.7 </tspan>
<tspan x="10" y="122">  ├─┬ chokidar@1.6.1 </tspan>
<tspan x="10" y="138">  │ ├─┬ anymatch@1.3.0 </tspan>
<tspan x="10" y="154">  │ │ └── arrify@1.0.1 </tspan>
<tspan x="10" y="170">  │ ├── async-each@1.0.1 </tspan>
<tspan x="10" y="186">  │ ├── glob-parent@2.0.0 </tspan>
<tspan x="10" y="202">  │ ├── inherits@2.0.3 </tspan>
<tspan x="10" y="218">  │ ├─┬ is-binary-path@1.0.1 </tspan>
<tspan x="10" y="234">  │ │ └── binary-extensions@1.8.0 </tspan>
<tspan x="10" y="250">  │ ├─┬ is-glob@2.0.1 </tspan>
<tspan x="10" y="266">  │ │ └── is-extglob@1.0.0 </tspan>
<tspan x="10" y="282">  │ ├── path-is-absolute@1.0.1 </tspan>
<tspan x="10" y="298">  │ └─┬ readdirp@2.1.0 </tspan>
<tspan x="10" y="314">  │   ├── graceful-fs@4.1.11 </tspan>
<tspan x="10" y="330">  │   ├─┬ minimatch@3.0.3 </tspan>
<tspan x="10" y="346">  │   │ └─┬ brace-expansion@1.1.7 </tspan>
<tspan x="10" y="362">  │   │   ├── balanced-match@0.4.2 </tspan>
<tspan x="10" y="378">  │   │   └── concat-map@0.0.1 </tspan>
<tspan x="10" y="394">  │   ├─┬ readable-stream@2.2.9 </tspan>
<tspan x="10" y="410">  │   │ ├── buffer-shims@1.0.0 </tspan>
<tspan x="10" y="426">  │   │ ├── core-util-is@1.0.2 </tspan>
<tspan x="10" y="442">  │   │ ├── isarray@1.0.0 </tspan>
<tspan x="10" y="458">  │   │ ├── process-nextick-args@1.0.7 </tspan>
<tspan x="10" y="474">  │   │ ├── string_decoder@1.0.0 </tspan>
<tspan x="10" y="490">  │   │ └── util-deprecate@1.0.2 </tspan>
<tspan x="10" y="506">  │   └── set-immediate-shim@1.0.1 </tspan>
<tspan x="10" y="522">  ├─┬ compression@1.6.2 </tspan>
<tspan x="10" y="538">  │ ├─┬ accepts@1.3.3 </tspan>
<tspan x="10" y="554">  │ │ └── negotiator@0.6.1 </tspan>
<tspan x="10" y="570">  │ ├── bytes@2.3.0 </tspan>
<tspan x="10" y="586">  │ ├─┬ compressible@2.0.10 </tspan>
<tspan x="10" y="602">  │ │ └── mime-db@1.27.0 </tspan>
<tspan x="10" y="618">  │ ├─┬ debug@2.2.0 </tspan>
<tspan x="10" y="634">  │ │ └── ms@0.7.1 </tspan>
<tspan x="10" y="650">  │ ├── on-headers@1.0.1 </tspan>
<tspan x="10" y="666">  │ └── vary@1.1.1 </tspan>
<tspan x="10" y="682">  ├── connect-history-api-fallback@1.3.0 </tspan>
<tspan x="10" y="698">  ├─┬ express@4.15.2 </tspan>
<tspan x="10" y="714">  │ ├── array-flatten@1.1.1 </tspan>
<tspan x="10" y="730">  │ ├── content-disposition@0.5.2 </tspan>
<tspan x="10" y="746">  │ ├── content-type@1.0.2 </tspan>
<tspan x="10" y="762">  │ ├── cookie@0.3.1 </tspan>
<tspan x="10" y="778">  │ ├── cookie-signature@1.0.6 </tspan>
<tspan x="10" y="794">  │ ├─┬ debug@2.6.1 </tspan>
<tspan x="10" y="810">  │ │ └── ms@0.7.2 </tspan>
<tspan x="10" y="826">  │ ├── depd@1.1.0 </tspan>
<tspan x="10" y="842">  │ ├── encodeurl@1.0.1 </tspan>
<tspan x="10" y="858">  │ ├── escape-html@1.0.3 </tspan>
<tspan x="10" y="874">  │ ├── etag@1.8.0 </tspan>
<tspan x="10" y="890">  │ ├─┬ finalhandler@1.0.1 </tspan>
<tspan x="10" y="906">  │ │ ├─┬ debug@2.6.3 </tspan>
<tspan x="10" y="922">  │ │ │ └── ms@0.7.2 </tspan>
<tspan x="10" y="938">  │ │ └── unpipe@1.0.0 </tspan>
<tspan x="10" y="954">  │ ├── fresh@0.5.0 </tspan>
<tspan x="10" y="970">  │ ├── merge-descriptors@1.0.1 </tspan>
<tspan x="10" y="986">  │ ├── methods@1.1.2 </tspan>
<tspan x="10" y="1002">  │ ├─┬ on-finished@2.3.0 </tspan>
<tspan x="10" y="1018">  │ │ └── ee-first@1.1.1 </tspan>
<tspan x="10" y="1034">  │ ├── parseurl@1.3.1 </tspan>
<tspan x="10" y="1050">  │ ├── path-to-regexp@0.1.7 </tspan>
<tspan x="10" y="1066">  │ ├─┬ proxy-addr@1.1.4 </tspan>
<tspan x="10" y="1082">  │ │ ├── forwarded@0.1.0 </tspan>
<tspan x="10" y="1098">  │ │ └── ipaddr.js@1.3.0 </tspan>
<tspan x="10" y="1114">  │ ├── qs@6.4.0 </tspan>
<tspan x="10" y="1130">  │ ├── range-parser@1.2.0 </tspan>
<tspan x="10" y="1146">  │ ├─┬ send@0.15.1 </tspan>
<tspan x="10" y="1162">  │ │ ├── debug@2.6.1 </tspan>
<tspan x="10" y="1178">  │ │ ├── destroy@1.0.4 </tspan>
<tspan x="10" y="1194">  │ │ ├── http-errors@1.6.1 </tspan>
<tspan x="10" y="1210">  │ │ └── ms@0.7.2 </tspan>
<tspan x="10" y="1226">  │ ├── serve-static@1.12.1 </tspan>
<tspan x="10" y="1242">  │ ├── setprototypeof@1.0.3 </tspan>
<tspan x="10" y="1258">  │ ├── statuses@1.3.1 </tspan>
<tspan x="10" y="1274">  │ ├─┬ type-is@1.6.15 </tspan>
<tspan x="10" y="1290">  │ │ └── media-typer@0.3.0 </tspan>
<tspan x="10" y="1306">  │ └── utils-merge@1.0.0 </tspan>
<tspan x="10" y="1322">  ├── html-entities@1.2.0 </tspan>
<tspan x="10" y="1338">  ├─┬ http-proxy-middleware@0.17.4 </tspan>
<tspan x="10" y="1354">  │ ├─┬ http-proxy@1.16.2 </tspan>
<tspan x="10" y="1370">  │ │ ├── eventemitter3@1.2.0 </tspan>
<tspan x="10" y="1386">  │ │ └── requires-port@1.0.0 </tspan>
<tspan x="10" y="1402">  │ ├─┬ is-glob@3.1.0 </tspan>
<tspan x="10" y="1418">  │ │ └── is-extglob@2.1.1 </tspan>
<tspan x="10" y="1434">  │ ├── lodash@4.17.4 </tspan>
<tspan x="10" y="1450">  │ └─┬ micromatch@2.3.11 </tspan>
<tspan x="10" y="1466">  │   ├─┬ arr-diff@2.0.0 </tspan>
<tspan x="10" y="1482">  │   │ └── arr-flatten@1.0.3 </tspan>
<tspan x="10" y="1498">  │   ├── array-unique@0.2.1 </tspan>
<tspan x="10" y="1514">  │   ├─┬ braces@1.8.5 </tspan>
<tspan x="10" y="1530">  │   │ ├─┬ expand-range@1.8.2 </tspan>
<tspan x="10" y="1546">  │   │ │ └─┬ fill-range@2.2.3 </tspan>
<tspan x="10" y="1562">  │   │ │   ├── is-number@2.1.0 </tspan>
<tspan x="10" y="1578">  │   │ │   ├── isobject@2.1.0 </tspan>
<tspan x="10" y="1594">  │   │ │   ├── randomatic@1.1.6 </tspan>
<tspan x="10" y="1610">  │   │ │   └── repeat-string@1.6.1 </tspan>
<tspan x="10" y="1626">  │   │ ├── preserve@0.2.0 </tspan>
<tspan x="10" y="1642">  │   │ └── repeat-element@1.1.2 </tspan>
<tspan x="10" y="1658">  │   ├─┬ expand-brackets@0.1.5 </tspan>
<tspan x="10" y="1674">  │   │ └── is-posix-bracket@0.1.1 </tspan>
<tspan x="10" y="1690">  │   ├── extglob@0.3.2 </tspan>
<tspan x="10" y="1706">  │   ├── filename-regex@2.0.0 </tspan>
<tspan x="10" y="1722">  │   ├─┬ kind-of@3.1.0 </tspan>
<tspan x="10" y="1738">  │   │ └── is-buffer@1.1.5 </tspan>
<tspan x="10" y="1754">  │   ├─┬ normalize-path@2.1.1 </tspan>
<tspan x="10" y="1770">  │   │ └── remove-trailing-separator@1.0.1 </tspan>
<tspan x="10" y="1786">  │   ├─┬ object.omit@2.0.1 </tspan>
<tspan x="10" y="1802">  │   │ ├─┬ for-own@0.1.5 </tspan>
<tspan x="10" y="1818">  │   │ │ └── for-in@1.0.2 </tspan>
<tspan x="10" y="1834">  │   │ └── is-extendable@0.1.1 </tspan>
<tspan x="10" y="1850">  │   ├─┬ parse-glob@3.0.4 </tspan>
<tspan x="10" y="1866">  │   │ ├── glob-base@0.3.0 </tspan>
<tspan x="10" y="1882">  │   │ └── is-dotfile@1.0.2 </tspan>
<tspan x="10" y="1898">  │   └─┬ regex-cache@0.4.3 </tspan>
<tspan x="10" y="1914">  │     ├── is-equal-shallow@0.1.3 </tspan>
<tspan x="10" y="1930">  │     └── is-primitive@2.0.0 </tspan>
<tspan x="10" y="1946">  ├─┬ opn@4.0.2 </tspan>
<tspan x="10" y="1962">  │ ├── object-assign@4.1.1 </tspan>
<tspan x="10" y="1978">  │ └─┬ pinkie-promise@2.0.1 </tspan>
<tspan x="10" y="1994">  │   └── pinkie@2.0.4 </tspan>
<tspan x="10" y="2010">  ├─┬ portfinder@1.0.13 </tspan>
<tspan x="10" y="2026">  │ ├── async@1.5.2 </tspan>
<tspan x="10" y="2042">  │ └─┬ mkdirp@0.5.1 </tspan>
<tspan x="10" y="2058">  │   └── minimist@0.0.8 </tspan>
<tspan x="10" y="2074">  ├─┬ serve-index@1.8.0 </tspan>
<tspan x="10" y="2090">  │ ├── batch@0.5.3 </tspan>
<tspan x="10" y="2106">  │ ├─┬ http-errors@1.5.1 </tspan>
<tspan x="10" y="2122">  │ │ └── setprototypeof@1.0.2 </tspan>
<tspan x="10" y="2138">  │ └── mime-types@2.1.15 </tspan>
<tspan x="10" y="2154">  ├─┬ sockjs@0.3.18 </tspan>
<tspan x="10" y="2170">  │ ├─┬ faye-websocket@0.10.0 </tspan>
<tspan x="10" y="2186">  │ │ └─┬ websocket-driver@0.6.5 </tspan>
<tspan x="10" y="2202">  │ │   └── websocket-extensions@0.1.1 </tspan>
<tspan x="10" y="2218">  │ └── uuid@2.0.3 </tspan>
<tspan x="10" y="2234">  ├─┬ sockjs-client@1.1.2 </tspan>
<tspan x="10" y="2250">  │ ├─┬ eventsource@0.1.6 </tspan>
<tspan x="10" y="2266">  │ │ └─┬ original@1.0.0 </tspan>
<tspan x="10" y="2282">  │ │   └── url-parse@1.0.5 </tspan>
<tspan x="10" y="2298">  │ ├── faye-websocket@0.11.1 </tspan>
<tspan x="10" y="2314">  │ ├── json3@3.3.2 </tspan>
<tspan x="10" y="2330">  │ └─┬ url-parse@1.1.8 </tspan>
<tspan x="10" y="2346">  │   └── querystringify@0.0.4 </tspan>
<tspan x="10" y="2362">  ├─┬ spdy@3.4.4 </tspan>
<tspan x="10" y="2378">  │ ├── handle-thing@1.2.5 </tspan>
<tspan x="10" y="2394">  │ ├── http-deceiver@1.2.7 </tspan>
<tspan x="10" y="2410">  │ ├── select-hose@2.0.0 </tspan>
<tspan x="10" y="2426">  │ └─┬ spdy-transport@2.0.18 </tspan>
<tspan x="10" y="2442">  │   ├── hpack.js@2.1.6 </tspan>
<tspan x="10" y="2458">  │   ├── obuf@1.1.1 </tspan>
<tspan x="10" y="2474">  │   └─┬ wbuf@1.7.2 </tspan>
<tspan x="10" y="2490">  │     └── minimalistic-assert@1.0.0 </tspan>
<tspan x="10" y="2506">  ├─┬ strip-ansi@3.0.1 </tspan>
<tspan x="10" y="2522">  │ └── ansi-regex@2.1.1 </tspan>
<tspan x="10" y="2538">  ├─┬ supports-color@3.2.3 </tspan>
<tspan x="10" y="2554">  │ └── has-flag@1.0.0 </tspan>
<tspan x="10" y="2570">  ├── UNMET PEER DEPENDENCY webpack@1 || ^2.1.0-beta || ^2.2.0-rc.0</tspan>
<tspan x="10" y="2586">  ├─┬ webpack-dev-middleware@1.10.1 </tspan>
<tspan x="10" y="2602">  │ ├─┬ memory-fs@0.4.1 </tspan>
<tspan x="10" y="2618">  │ │ └─┬ errno@0.1.4 </tspan>
<tspan x="10" y="2634">  │ │   └── prr@0.0.0 </tspan>
<tspan x="10" y="2650">  │ └── mime@1.3.4 </tspan>
<tspan x="10" y="2666">  └─┬ yargs@6.6.0 </tspan>
<tspan x="10" y="2682">    ├── camelcase@3.0.0 </tspan>
<tspan x="10" y="2698">    ├─┬ cliui@3.2.0 </tspan>
<tspan x="10" y="2714">    │ └── wrap-ansi@2.1.0 </tspan>
<tspan x="10" y="2730">    ├── decamelize@1.2.0 </tspan>
<tspan x="10" y="2746">    ├── get-caller-file@1.0.2 </tspan>
<tspan x="10" y="2762">    ├─┬ os-locale@1.4.0 </tspan>
<tspan x="10" y="2778">    │ └─┬ lcid@1.0.0 </tspan>
<tspan x="10" y="2794">    │   └── invert-kv@1.0.0 </tspan>
<tspan x="10" y="2810">    ├─┬ read-pkg-up@1.0.1 </tspan>
<tspan x="10" y="2826">    │ ├─┬ find-up@1.1.2 </tspan>
<tspan x="10" y="2842">    │ │ └── path-exists@2.1.0 </tspan>
<tspan x="10" y="2858">    │ └─┬ read-pkg@1.1.0 </tspan>
<tspan x="10" y="2874">    │   ├─┬ load-json-file@1.1.0 </tspan>
<tspan x="10" y="2890">    │   │ ├─┬ parse-json@2.2.0 </tspan>
<tspan x="10" y="2906">    │   │ │ └─┬ error-ex@1.3.1 </tspan>
<tspan x="10" y="2922">    │   │ │   └── is-arrayish@0.2.1 </tspan>
<tspan x="10" y="2938">    │   │ ├── pify@2.3.0 </tspan>
<tspan x="10" y="2954">    │   │ └─┬ strip-bom@2.0.0 </tspan>
<tspan x="10" y="2970">    │   │   └── is-utf8@0.2.1 </tspan>
<tspan x="10" y="2986">    │   ├─┬ normalize-package-data@2.3.6 </tspan>
<tspan x="10" y="3002">    │   │ ├── hosted-git-info@2.4.2 </tspan>
<tspan x="10" y="3018">    │   │ ├─┬ is-builtin-module@1.0.0 </tspan>
<tspan x="10" y="3034">    │   │ │ └── builtin-modules@1.1.1 </tspan>
<tspan x="10" y="3050">    │   │ ├── semver@5.3.0 </tspan>
<tspan x="10" y="3066">    │   │ └─┬ validate-npm-package-license@3.0.1 </tspan>
<tspan x="10" y="3082">    │   │   ├─┬ spdx-correct@1.0.2 </tspan>
<tspan x="10" y="3098">    │   │   │ └── spdx-license-ids@1.2.2 </tspan>
<tspan x="10" y="3114">    │   │   └── spdx-expression-parse@1.0.4 </tspan>
<tspan x="10" y="3130">    │   └── path-type@1.1.0 </tspan>
<tspan x="10" y="3146">    ├── require-directory@2.1.1 </tspan>
<tspan x="10" y="3162">    ├── require-main-filename@1.0.1 </tspan>
<tspan x="10" y="3178">    ├── set-blocking@2.0.0 </tspan>
<tspan x="10" y="3194">    ├─┬ string-width@1.0.2 </tspan>
<tspan x="10" y="3210">    │ ├── code-point-at@1.1.0 </tspan>
<tspan x="10" y="3226">    │ └─┬ is-fullwidth-code-point@1.0.0 </tspan>
<tspan x="10" y="3242">    │   └── number-is-nan@1.0.1 </tspan>
<tspan x="10" y="3258">    ├── which-module@1.0.0 </tspan>
<tspan x="10" y="3274">    ├── y18n@3.2.1 </tspan>
<tspan x="10" y="3290">    └── yargs-parser@4.2.1</tspan>
</text>
</svg>
